<svg id="Layer_1" data-name="Layer 1" xmlns="http://www.w3.org/2000/svg" xmlns:xlink="http://www.w3.org/1999/xlink" viewBox="0 0 1920 1920"><defs><style>.cls-1,.cls-13,.cls-18,.cls-20,.cls-22,.cls-5,.cls-7{fill:none;}.cls-2,.cls-23{fill:#0a0a23;}.cls-3{fill:#ffc046;}.cls-4{fill:#82ede3;}.cls-5{stroke:#10c6b8;}.cls-18,.cls-5,.cls-7{stroke-linecap:round;}.cls-13,.cls-18,.cls-20,.cls-22,.cls-5,.cls-7{stroke-miterlimit:10;}.cls-18,.cls-22,.cls-5{stroke-width:0.71px;}.cls-6{fill:#ff2a3c;}.cls-13,.cls-18,.cls-7{stroke:#0a0a23;}.cls-7{stroke-width:4.25px;}.cls-8{fill:#000722;}.cls-9{fill:#097b85;}.cls-10{fill:#000a24;}.cls-11{fill:#fff1f5;}.cls-12{clip-path:url(#clip-path);}.cls-13{stroke-width:2.13px;}.cls-14{fill:#ff556a;opacity:0.75;}.cls-15{fill:#4beee4;}.cls-16{fill:#a8eee7;}.cls-17{fill:#fdfcfd;}.cls-19{fill:#f9d29c;}.cls-20{stroke:#ff2a3c;}.cls-21{fill:#302117;}.cls-22{stroke:#ffbe00;}.cls-23{font-size:39.27px;font-family:Lato-Black, Lato Black;font-weight:800;}</style><clipPath id="clip-path"><path class="cls-1" d="M1277.05,768.74c0-.52-.12-1-.18-1.56-.16-1.26-.34-2.51-.58-3.74-.09-.53-.19-1.06-.3-1.58-.33-1.51-.7-3-1.15-4.46,0-.16-.08-.33-.13-.5-.29-.9-.62-1.79-1-2.67h0c-.25-.67-.49-1.34-.76-2s-.45-1-.68-1.54q-.69-1.55-1.47-3.06c-.28-.54-.56-1.07-.86-1.6-.45-.8-.92-1.58-1.41-2.36-.06-.09-.11-.18-.17-.26l-.35-.57c-.23-.36-.44-.72-.68-1.07-.87-1.29-1.81-2.52-2.79-3.73-.42-.52-.86-1-1.3-1.53-.61-.7-1.24-1.4-1.88-2.07l-.26-.28q-.66-.69-1.35-1.35c-.7-.67-1.42-1.32-2.15-2l-.16-.15c-.17-.14-.32-.3-.48-.44l-.07-.06-1.11-.92c-1.06-.84-2.14-1.65-3.26-2.43-.64-.44-1.3-.85-2-1.27s-1.44-.9-2.18-1.33-1.2-.69-1.82-1l-.37-.17c-.76-.4-1.54-.76-2.32-1.12s-1.39-.67-2.11-1h0c-.28-.11-.57-.19-.84-.3-.54-.22-1.09-.4-1.63-.6-1.44-.52-2.9-1-4.39-1.38-.66-.18-1.33-.36-2-.52-1.48-.34-3-.61-4.51-.84-.64-.1-1.28-.22-1.93-.3a59.43,59.43,0,0,0-6.57-.4H1091.3a57.4,57.4,0,0,0-54.67,40h0l-101,237.23H713.32l0,49.3H1034l0,87.24h243.23V774C1277.31,772.25,1277.21,770.49,1277.05,768.74ZM1034,993.82h-22.7l22.68-53.5Z"/></clipPath></defs><title>programmer</title><path class="cls-2" d="M1666.65,1510.47h-262a25.56,25.56,0,0,0-25.56,25.56h0a25.56,25.56,0,0,0,25.56,25.56h262a25.56,25.56,0,0,0,25.56-25.56h0A25.56,25.56,0,0,0,1666.65,1510.47Z"/><path class="cls-3" d="M1503.16,1549.73h-3.57v-10.16h-11.18v10.16h-3.56v-22.21h3.56v8.85h11.18v-8.85h3.57Z"/><path class="cls-3" d="M1525.07,1530.71h-7.51v19H1514v-19h-7.47v-3.19h18.55Z"/><path class="cls-3" d="M1549.5,1527.15v22.58h-3.57V1535.8l-6.36,8.34h-1.21l-6.4-8.34v13.93h-3.56v-22.58h1.24l9.32,12.42,9.33-12.42Z"/><path class="cls-3" d="M1558.65,1546.53h10.17v3.2h-13.73v-22.21h3.56Z"/><path class="cls-2" d="M1586,1612.71h-199.2a25.56,25.56,0,0,0-25.56,25.56h0a25.56,25.56,0,0,0,25.56,25.56H1586a25.56,25.56,0,0,0,25.56-25.56h0A25.56,25.56,0,0,0,1586,1612.71Z"/><path class="cls-4" d="M1647,1638.27a25.56,25.56,0,0,1,25.56-25.56H1562.8a25.56,25.56,0,1,0,0,51.12h109.71A25.56,25.56,0,0,1,1647,1638.27Z"/><path class="cls-3" d="M1435.2,1628.07a11.29,11.29,0,0,1,5.64,1.4,10.48,10.48,0,0,1,3.88,3.71l-2.69,2a8.74,8.74,0,0,0-2.88-2.83,7.55,7.55,0,0,0-3.92-1,8,8,0,0,0-3.18.63,7.68,7.68,0,0,0-4.22,4.3,9.15,9.15,0,0,0,0,6.57,7.68,7.68,0,0,0,4.22,4.3,8,8,0,0,0,3.18.63,7.55,7.55,0,0,0,3.92-1,8.64,8.64,0,0,0,2.88-2.83l2.69,2a10.43,10.43,0,0,1-3.88,3.72,11.28,11.28,0,0,1-5.64,1.39,11.94,11.94,0,0,1-4.56-.87,11.64,11.64,0,0,1-3.72-2.41,11,11,0,0,1-2.49-3.63,11.36,11.36,0,0,1-.91-4.56,11.36,11.36,0,0,1,3.4-8.18,11.37,11.37,0,0,1,3.72-2.43A11.94,11.94,0,0,1,1435.2,1628.07Z"/><path class="cls-3" d="M1457.08,1641.5v6.22h-3.44v-6.22h-6.06v-3.07h6.06v-6.15h3.44v6.15H1463v3.07Z"/><path class="cls-3" d="M1472.42,1641.5v6.22H1469v-6.22h-6.06v-3.07H1469v-6.15h3.43v6.15h5.93v3.07Z"/><line class="cls-5" x1="1692.21" y1="1619.8" x2="1561.94" y2="1619.8"/><line class="cls-5" x1="1692.21" y1="1628.71" x2="1551.38" y2="1628.71"/><line class="cls-5" x1="1692.21" y1="1637.61" x2="1544.79" y2="1637.61"/><line class="cls-5" x1="1692.21" y1="1646.52" x2="1555.67" y2="1646.52"/><line class="cls-5" x1="1692.21" y1="1655.42" x2="1561.94" y2="1655.42"/><path class="cls-6" d="M1614.82,1459.35H1415.61a25.56,25.56,0,0,0-25.56,25.56h0a25.56,25.56,0,0,0,25.56,25.56h199.21a25.56,25.56,0,0,0,25.56-25.56h0A25.56,25.56,0,0,0,1614.82,1459.35Z"/><path class="cls-4" d="M1675.75,1484.91a25.56,25.56,0,0,1,25.56-25.56H1591.6a25.56,25.56,0,0,0,0,51.12h109.71A25.56,25.56,0,0,1,1675.75,1484.91Z"/><path class="cls-2" d="M1464.92,1488.83q0,6.9-6.49,6.9a8.63,8.63,0,0,1-3.3-.57v-3.33a10,10,0,0,0,2.89.57c1.62,0,2.64-.48,3.07-1.45a4,4,0,0,0,.37-1.54c0-.39,0-1,0-1.89v-15.89h3.43Z"/><path class="cls-2" d="M1485.05,1495.16l-2.52-7.1h-8.86l-2.59,7.1h-3.56l9-23.53h3.4l8.72,23.53Zm-10.3-10h6.73l-3.33-9.29Z"/><path class="cls-2" d="M1502.85,1471.63h3.57l-8.14,23.53h-3.4l-8.05-23.53h3.57l6.23,18.89Z"/><path class="cls-2" d="M1522.34,1495.16l-2.52-7.1H1511l-2.59,7.1h-3.57l9-23.53h3.4l8.72,23.53Zm-10.3-10h6.74l-3.34-9.29Z"/><line class="cls-5" x1="1590.8" y1="1468.5" x2="1692.21" y2="1468.5"/><line class="cls-5" x1="1580.08" y1="1477.41" x2="1692.21" y2="1477.41"/><line class="cls-5" x1="1594.26" y1="1484.91" x2="1692.21" y2="1484.91"/><line class="cls-5" x1="1580.08" y1="1493.82" x2="1692.21" y2="1493.82"/><line class="cls-5" x1="1594.26" y1="1501.32" x2="1692.21" y2="1501.32"/><path class="cls-6" d="M1622.48,1561.59H1423.27a25.57,25.57,0,0,0-25.56,25.56h0a25.56,25.56,0,0,0,25.56,25.56h199.21a25.56,25.56,0,0,0,25.56-25.56h0A25.56,25.56,0,0,0,1622.48,1561.59Z"/><path class="cls-4" d="M1659.12,1587.15a25.56,25.56,0,0,1,25.56-25.56h-73.11a25.56,25.56,0,1,0,0,51.12h73.11A25.56,25.56,0,0,1,1659.12,1587.15Z"/><path class="cls-2" d="M1475.78,1578.1a8.17,8.17,0,0,1,7.17,4l-2.49,1.92a6.64,6.64,0,0,0-2-2,5,5,0,0,0-2.63-.71,4.23,4.23,0,0,0-2.36.66,2.24,2.24,0,0,0-1,2,2.35,2.35,0,0,0,.23,1.1,2.72,2.72,0,0,0,.64.8,4.65,4.65,0,0,0,1,.66c.38.2.79.41,1.24.61l2.49,1.14a18.62,18.62,0,0,1,2.24,1.21,8.44,8.44,0,0,1,1.68,1.4,5.34,5.34,0,0,1,1,1.67,5.72,5.72,0,0,1,.35,2.05,6.08,6.08,0,0,1-.57,2.67,5.9,5.9,0,0,1-1.57,2,7.1,7.1,0,0,1-2.35,1.28,9.08,9.08,0,0,1-2.95.46,9.38,9.38,0,0,1-5-1.3,9.65,9.65,0,0,1-3.43-3.52l2.53-1.91a9.6,9.6,0,0,0,1.06,1.34,7.69,7.69,0,0,0,1.29,1.13,6,6,0,0,0,1.57.77,6,6,0,0,0,1.9.29,4.48,4.48,0,0,0,2.78-.82,2.75,2.75,0,0,0,1.06-2.28,2.49,2.49,0,0,0-.24-1.12,2.54,2.54,0,0,0-.67-.86,6.16,6.16,0,0,0-1-.69c-.39-.22-.84-.43-1.33-.66l-2.46-1.14c-.71-.34-1.39-.7-2-1.08a8.57,8.57,0,0,1-1.65-1.31,5.8,5.8,0,0,1-1.11-1.67,5.38,5.38,0,0,1-.4-2.1,5.49,5.49,0,0,1,.56-2.49,5.7,5.7,0,0,1,1.51-1.9,6.84,6.84,0,0,1,2.22-1.22A8.55,8.55,0,0,1,1475.78,1578.1Z"/><path class="cls-2" d="M1506.64,1578.47l-9.79,22.59h-1.21l-9.8-22.59h4l6.39,15.45,6.4-15.45Z"/><path class="cls-2" d="M1519.87,1578.1a11.32,11.32,0,0,1,5.28,1.21,11.09,11.09,0,0,1,3.91,3.44l-2.59,2.12a8.82,8.82,0,0,0-2.81-2.58,7.71,7.71,0,0,0-3.82-.92,8.33,8.33,0,0,0-3.25.62,7.72,7.72,0,0,0-2.53,1.72,7.6,7.6,0,0,0-1.63,2.59,9.06,9.06,0,0,0-.57,3.25,9.18,9.18,0,0,0,.59,3.31,7.55,7.55,0,0,0,1.68,2.64,8,8,0,0,0,2.59,1.74,8.69,8.69,0,0,0,3.32.62,8.05,8.05,0,0,0,3.94-.93,7.46,7.46,0,0,0,2.69-2.44v-2.39h-6.83v-3.16h10.4v6.26a10.1,10.1,0,0,1-1.79,2.39,11.7,11.7,0,0,1-5.3,3.05,12.6,12.6,0,0,1-3.28.42,12.19,12.19,0,0,1-4.63-.88,11.25,11.25,0,0,1-3.7-2.42,11.43,11.43,0,0,1-2.47-3.65,11.49,11.49,0,0,1,2.49-12.71,11.34,11.34,0,0,1,3.72-2.42A11.84,11.84,0,0,1,1519.87,1578.1Z"/><line class="cls-5" x1="1686.28" y1="1569.67" x2="1602.67" y2="1569.67"/><line class="cls-5" x1="1686.28" y1="1578.58" x2="1594.26" y2="1578.58"/><line class="cls-5" x1="1686.28" y1="1587.48" x2="1606.63" y2="1587.48"/><line class="cls-5" x1="1686.28" y1="1596.39" x2="1595.99" y2="1596.39"/><line class="cls-5" x1="1686.28" y1="1605.29" x2="1609.35" y2="1605.29"/><line class="cls-7" x1="145.88" y1="1663.83" x2="1815.89" y2="1663.83"/><path class="cls-8" d="M674.42,1664.5a8,8,0,0,1-1.19-.09,8.41,8.41,0,0,1-7.15-9.51L750.8,1058a8.41,8.41,0,0,1,16.66,2.36l-84.72,596.93A8.42,8.42,0,0,1,674.42,1664.5Z"/><path class="cls-8" d="M838.33,1664.17a8.42,8.42,0,0,1-8.42-8.42V1322.31a8.42,8.42,0,0,1,16.83,0v333.44A8.42,8.42,0,0,1,838.33,1664.17Z"/><path class="cls-8" d="M1018.4,1664.17a8.42,8.42,0,0,1-8.41-8.42V1322.31a8.42,8.42,0,0,1,16.83,0v333.44A8.42,8.42,0,0,1,1018.4,1664.17Z"/><path class="cls-8" d="M1100.2,1664.17a8.41,8.41,0,0,1-8.41-8.42V1322.31a8.41,8.41,0,0,1,16.82,0v333.44A8.41,8.41,0,0,1,1100.2,1664.17Z"/><path class="cls-8" d="M1322.82,1664.17a8.42,8.42,0,0,1-8.41-8.42V1322.31a8.42,8.42,0,0,1,16.83,0v333.44A8.42,8.42,0,0,1,1322.82,1664.17Z"/><path class="cls-2" d="M1156.47,800.38s-67.28,57.39-67.28,188.49v230.54a59.37,59.37,0,0,1-59.37,59.37h293.29V951.6l56.44-112.13V800.38H1156.47"/><path class="cls-6" d="M1410.47,839.22s-48.4,51.2-48.4,149.65v278a79.16,79.16,0,0,1-79.15,79.16H1072.49v-67.28H1252.9a59.37,59.37,0,0,0,59.37-59.37V988.87c0-131.1,67.28-188.49,67.28-188.49Z"/><rect class="cls-2" x="824.47" y="1278.78" width="279.02" height="67.28" rx="4.19"/><path class="cls-9" d="M887.8,1278.78h313.32V1130.36H1033.74l-188.53,96.27a79.15,79.15,0,0,0-32.44,30.72L647.36,1542l63.33,41.55Z"/><path class="cls-2" d="M1201.12,1150.64l-45.84,16-206.44,59.28c-24.6,6.68-39.44,22.14-53.46,41.64l-7.58,11.22h282.32a59,59,0,0,0,31-8.81Z"/><polygon class="cls-6" points="667.96 1660.86 515.16 1553.94 518.08 1549 671.11 1656.08 667.96 1660.86"/><path class="cls-10" d="M652.34,1545.23c-7.61,9.93-40.27,8.94-61.37,3.33s-61.68-15-72.89.44l153,107.08s27.13-30.82,33.69-76.42Z"/><path class="cls-11" d="M658.08,1604.66a24.16,24.16,0,1,0-33.51,6.66A24.17,24.17,0,0,0,658.08,1604.66Z"/><polygon class="cls-6" points="626.47 1577.74 636.16 1584.22 648.35 1573.17 644.32 1589.68 655.21 1596.22 641.42 1598.08 639.37 1612.02 633.08 1598.77 617.86 1602.76 629.85 1591.08 626.47 1577.74"/><path class="cls-9" d="M1277,1130.36v89.05a59.37,59.37,0,0,1-59.37,59.37H1040.75l-83.69,317.61-71.9-11.55,61.41-316.1a59.37,59.37,0,0,1,33.93-42.82l209.33-95.56Z"/><path class="cls-10" d="M885.16,1584.84c-8.25,20.78-33.31,37.27-56.73,41.56s-42.79,16.41-46.75,29.68l166.47-.33s5.94-31.55,0-60.79Z"/><path class="cls-11" d="M928,1622.49a24.16,24.16,0,1,0-24.16,24.16A24.16,24.16,0,0,0,928,1622.49Z"/><polygon class="cls-6" points="889 1618.3 899.15 1618.3 902.63 1604.4 907.71 1618.3 918.76 1617.77 909.67 1625.79 914.94 1636.87 903.97 1630.33 894.88 1640.58 897.91 1626.32 889 1618.3"/><polygon class="cls-6" points="781.68 1662.43 781.68 1656.08 948.15 1655.75 948.15 1662.43 781.68 1662.43"/><path class="cls-6" d="M1277,1130.36V774a57.38,57.38,0,0,0-57.39-57.39H1091A57.38,57.38,0,0,0,1033.58,774l.16,356.32Z"/><polygon class="cls-6" points="1088.98 809.78 990.08 1043.13 713.01 1043.13 712.99 993.82 935.29 993.82 1036.28 756.59 1088.98 809.78"/><path class="cls-6" d="M1241.48,721,1123.29,993.82H901l0,49.3h277.07L1277,809.78V774A57.4,57.4,0,0,0,1241.48,721Z"/><g class="cls-12"><line class="cls-13" x1="735.76" y1="558.03" x2="735.76" y2="1495.84"/><line class="cls-13" x1="781.93" y1="558.03" x2="781.93" y2="1495.84"/><line class="cls-13" x1="828.11" y1="558.03" x2="828.11" y2="1495.84"/><line class="cls-13" x1="874.28" y1="558.03" x2="874.28" y2="1495.84"/><line class="cls-13" x1="920.45" y1="558.03" x2="920.45" y2="1495.84"/><line class="cls-13" x1="966.63" y1="558.03" x2="966.63" y2="1495.84"/><line class="cls-13" x1="1012.8" y1="558.03" x2="1012.8" y2="1495.84"/><line class="cls-13" x1="1058.98" y1="558.03" x2="1058.98" y2="1495.84"/><line class="cls-13" x1="1105.15" y1="558.03" x2="1105.15" y2="1495.84"/><line class="cls-13" x1="1151.32" y1="558.03" x2="1151.32" y2="1495.84"/><line class="cls-13" x1="1197.5" y1="558.03" x2="1197.5" y2="1495.84"/><line class="cls-13" x1="1243.67" y1="558.03" x2="1243.67" y2="1495.84"/></g><g class="cls-12"><line class="cls-13" x1="627.01" y1="1210.67" x2="1564.82" y2="1210.67"/><line class="cls-13" x1="627.01" y1="1164.5" x2="1564.82" y2="1164.5"/><line class="cls-13" x1="627.01" y1="1118.32" x2="1564.82" y2="1118.32"/><line class="cls-13" x1="627.01" y1="1072.15" x2="1564.82" y2="1072.15"/><line class="cls-13" x1="627.01" y1="1025.98" x2="1564.82" y2="1025.98"/><line class="cls-13" x1="627.01" y1="979.8" x2="1564.82" y2="979.8"/><line class="cls-13" x1="627.01" y1="933.63" x2="1564.82" y2="933.63"/><line class="cls-13" x1="627.01" y1="887.45" x2="1564.82" y2="887.45"/><line class="cls-13" x1="627.01" y1="841.28" x2="1564.82" y2="841.28"/><line class="cls-13" x1="627.01" y1="795.11" x2="1564.82" y2="795.11"/><line class="cls-13" x1="627.01" y1="748.93" x2="1564.82" y2="748.93"/><line class="cls-13" x1="627.01" y1="702.76" x2="1564.82" y2="702.76"/></g><path class="cls-14" d="M1266.16,740.69l0-.06c-.15-.21-.34-.4-.5-.62-.94-1.27-1.94-2.49-3-3.69-.35-.4-.69-.82-1.06-1.22-1.21-1.31-2.49-2.55-3.82-3.74-.26-.23-.49-.48-.75-.71a57.49,57.49,0,0,0-10.61-7.28c-.58-.31-1.19-.56-1.79-.86-1.06-.51-2.1-1.06-3.19-1.52l0,.07a57.43,57.43,0,0,0-14.93-3.93L1164,742.33V716.65h-73a57.4,57.4,0,0,0-54.67,40h0l-101,237.23H713l0,49.3H955.85l14.46-24.57h187.61S1238.15,832,1273.43,754.23A57.3,57.3,0,0,0,1266.16,740.69ZM980.83,993.82l52.81-100.92,0,100.92Z"/><path class="cls-15" d="M1046.11,536.7V637.29a57.06,57.06,0,0,0,57.06,57.06h18.47a57.06,57.06,0,0,0,57-57.06V536.7Z"/><path class="cls-15" d="M1103.17,634.32V715A32.82,32.82,0,0,0,1136,747.78h9.9A32.82,32.82,0,0,0,1178.69,715V634.32Z"/><path class="cls-16" d="M1155.28,656.67l-52.11,14.14V715A32.82,32.82,0,0,0,1136,747.78h9.9a32.62,32.62,0,0,0,18.09-5.45C1160.35,711.32,1155.28,679.5,1155.28,656.67Z"/><path class="cls-16" d="M1046.11,540.57v96.72a57.06,57.06,0,0,0,57.06,57.06h18.47a56.89,56.89,0,0,0,45.67-23V592.81c0-19.57-3.79-25.11-16.32-44.16C1142.55,535.83,1091.35,538.14,1046.11,540.57Z"/><path class="cls-3" d="M1149.51,555.5h-103.4c-33.15,0-37.1-19.79-37.1-34.63s9.77-33.65,33.33-33.65,32.21,11.88,48.66,11.38,42.67,0,60,0,44.6,14.35,52.23,38.1,6.64,44.72,6.64,67.87-17.31,56.63-31.17,69.82V603S1160.39,594.58,1149.51,555.5Z"/><path class="cls-15" d="M1178.69,583.53c10.23-6.93,26.06-4.95,24.41,13.85s-12.53,34-24.41,31.66-10.88-24.47-10.88-24.47Z"/><path class="cls-16" d="M1049.15,583.53c-10.23-6.93-26.06-4.95-24.41,13.85s12.54,34,24.41,31.66S1060,604.57,1060,604.57Z"/><circle class="cls-17" cx="1135.16" cy="595.57" r="22.76"/><circle class="cls-17" cx="1065.1" cy="595.57" r="22.76"/><path class="cls-15" d="M1096.57,598.78c-4.7,8.41-14.1,15.09-14.35,20.78s17.57,6.68,17.57,6.68"/><path class="cls-18" d="M1096.57,598.78c-4.7,8.41-14.1,15.09-14.35,20.78s17.57,6.68,17.57,6.68"/><circle class="cls-18" cx="1121.31" cy="652.71" r="3.96"/><path class="cls-19" d="M1167.79,579.86c0-27.38-14.16-45.14-42.53-62.13A286.6,286.6,0,0,1,1097,498.48c-2.26,0-4.33.07-6,.12-16.45.5-25.1-11.38-48.66-11.38S1009,506,1009,520.87s4,34.63,37.1,34.63h103.4c5.18,18.61,12,30.21,17.8,37.31C1167.6,588.55,1167.79,584.21,1167.79,579.86Z"/><rect class="cls-6" x="615.37" y="939.07" width="321.9" height="104.06" rx="5.08"/><rect class="cls-2" x="542.15" y="939.07" width="321.9" height="104.06" rx="5.08"/><rect class="cls-6" x="536.55" y="567.37" width="447.89" height="302.77" rx="7.21"/><rect class="cls-2" x="506.21" y="567.37" width="447.89" height="302.77" rx="7.21"/><rect class="cls-2" x="963" y="666.31" width="5.69" height="17.32"/><rect class="cls-2" x="963" y="699.34" width="5.69" height="17.32"/><rect class="cls-2" x="963" y="826.19" width="5.69" height="17.32"/><rect class="cls-6" x="621.31" y="923.51" width="278.36" height="15.56" rx="1.23"/><rect class="cls-2" x="590.97" y="923.51" width="278.36" height="15.56" rx="1.23"/><rect class="cls-6" x="639.78" y="650.81" width="180.74" height="187.99" rx="5.25"/><rect class="cls-6" x="689.09" y="827.59" width="82.12" height="95.91"/><circle class="cls-2" cx="705.74" cy="856.29" r="6.18"/><line class="cls-20" x1="701.37" y1="860.66" x2="710.11" y2="851.91"/><circle class="cls-2" cx="754.31" cy="856.29" r="6.18"/><line class="cls-20" x1="749.93" y1="860.66" x2="758.68" y2="851.91"/><rect class="cls-2" x="35.23" y="254.24" width="422.16" height="427.85"/><rect class="cls-16" x="35.23" y="254.24" width="422.16" height="54.25"/><rect class="cls-6" x="74.64" y="335.2" width="64.31" height="12.37"/><rect class="cls-16" x="74.64" y="359.94" width="64.31" height="12.37"/><rect class="cls-6" x="74.64" y="409.71" width="64.31" height="12.37"/><rect class="cls-16" x="114.72" y="384.68" width="283.97" height="12.37"/><rect class="cls-6" x="114.72" y="434.15" width="283.97" height="12.37"/><rect class="cls-16" x="114.72" y="458.88" width="283.97" height="12.37"/><rect class="cls-16" x="114.72" y="507.29" width="283.97" height="12.37"/><rect class="cls-16" x="114.72" y="434.44" width="283.97" height="12.37"/><rect class="cls-16" x="114.72" y="483.62" width="146.93" height="12.37"/><rect class="cls-16" x="114.72" y="581.2" width="146.93" height="12.37"/><rect class="cls-6" x="74.64" y="531.34" width="64.31" height="12.37"/><rect class="cls-6" x="74.64" y="556.07" width="64.31" height="12.37"/><rect class="cls-16" x="114.72" y="605.25" width="283.97" height="12.37"/><rect class="cls-16" x="114.72" y="629.99" width="146.93" height="12.37"/><path class="cls-2" d="M91.49,281l-10.8,4.56,10.8,4.55v3.73l-17.71-7.7V285l17.71-7.7Z"/><path class="cls-2" d="M98.83,302.78H94.24l20.53-35.38h4.6Z"/><path class="cls-2" d="M139.82,285v1.17l-17.71,7.7V290.1l10.8-4.55L122.11,281v-3.73Z"/><polygon class="cls-3" points="445.52 1043.13 384.67 1043.13 372.8 915.16 457.39 915.16 445.52 1043.13"/><ellipse class="cls-21" cx="403.47" cy="977.99" rx="8.41" ry="13.36"/><line class="cls-22" x1="403.47" y1="964.63" x2="403.47" y2="991.34"/><path class="cls-21" d="M436.58,974c-4,6.2-10.41,9.19-14.31,6.67s-3.82-9.59.18-15.79,10.4-9.18,14.3-6.66S440.58,967.82,436.58,974Z"/><line class="cls-22" x1="436.75" y1="958.24" x2="422.27" y2="980.69"/><path class="cls-21" d="M390.63,937.76a5.56,5.56,0,0,1,2.81.7,5.13,5.13,0,0,1,1.95,1.86l-1.35,1a4.3,4.3,0,0,0-1.44-1.41,3.72,3.72,0,0,0-2-.51,4.17,4.17,0,0,0-1.59.31,4,4,0,0,0-1.27.86,3.93,3.93,0,0,0-.84,1.3,4.63,4.63,0,0,0,0,3.28,3.93,3.93,0,0,0,.84,1.3,3.83,3.83,0,0,0,1.27.85,4,4,0,0,0,1.59.31,3.71,3.71,0,0,0,2-.5,4.4,4.4,0,0,0,1.44-1.41l1.35,1a5.29,5.29,0,0,1-1.95,1.86,5.66,5.66,0,0,1-2.81.7,6,6,0,0,1-2.28-.44,5.62,5.62,0,0,1-1.86-1.2,5.52,5.52,0,0,1-1.25-1.82,6,6,0,0,1,0-4.55,5.63,5.63,0,0,1,1.25-1.82,5.49,5.49,0,0,1,1.86-1.21A6,6,0,0,1,390.63,937.76Z"/><path class="cls-21" d="M402.59,937.76a5.89,5.89,0,0,1,2.27.44,5.55,5.55,0,0,1,1.85,1.21,5.82,5.82,0,0,1,1.26,1.82,5.86,5.86,0,0,1,0,4.55,5.7,5.7,0,0,1-3.11,3,5.89,5.89,0,0,1-2.27.44,6,6,0,0,1-2.28-.44,5.71,5.71,0,0,1-1.85-1.21,6,6,0,0,1-1.24-1.83,5.66,5.66,0,0,1-.45-2.26,5.61,5.61,0,0,1,1.7-4.09,5.65,5.65,0,0,1,1.85-1.21A5.92,5.92,0,0,1,402.59,937.76Zm0,1.63a4.17,4.17,0,0,0-1.59.31,4,4,0,0,0-1.27.85,3.86,3.86,0,0,0-.83,1.3,4.63,4.63,0,0,0,0,3.28,4,4,0,0,0,.83,1.31,3.83,3.83,0,0,0,1.27.85,4,4,0,0,0,1.59.31,3.85,3.85,0,0,0,3.68-2.47,4.41,4.41,0,0,0,.31-1.65,4.33,4.33,0,0,0-.31-1.62,3.93,3.93,0,0,0-.84-1.3,3.9,3.9,0,0,0-2.84-1.17Z"/><path class="cls-21" d="M417.7,939.54h-5.35v3.3h4.41v1.63h-4.41v4.58h-1.78V938h7.13Z"/><path class="cls-21" d="M426.6,939.54h-5.35v3.3h4.41v1.63h-4.41v4.58h-1.78V938h7.13Z"/><path class="cls-21" d="M435.67,939.54h-5.52v2.85h4.16v1.55h-4.16v3.51h5.73v1.6h-7.51V938h7.3Z"/><path class="cls-21" d="M445.25,939.54h-5.52v2.85h4.16v1.55h-4.16v3.51h5.72v1.6H438V938h7.3Z"/><path class="cls-4" d="M366,737.88H229.82A83.94,83.94,0,0,1,145.88,654V607.77a47.5,47.5,0,0,1,47.5-47.49h58.87a53.26,53.26,0,0,1,53.26,53.26,28.2,28.2,0,0,0,28.2,28.2h60.52a63.16,63.16,0,0,1,63.16,63.16v98.45a40.07,40.07,0,0,1-40.07,40.07H349.54a14.72,14.72,0,0,0,0,29.44h65.55a42.3,42.3,0,0,1,42.3,42.3H282.76a60.36,60.36,0,1,1,0-120.71H366a28.2,28.2,0,0,0,0-56.4"/><rect class="cls-2" x="1290.17" y="396.46" width="422.16" height="304.38"/><rect class="cls-16" x="1290.17" y="396.46" width="422.16" height="54.25"/><rect class="cls-6" x="1329.58" y="477.43" width="64.31" height="12.37"/><rect class="cls-16" x="1329.58" y="502.17" width="64.31" height="12.37"/><rect class="cls-6" x="1329.58" y="551.93" width="64.31" height="12.37"/><rect class="cls-16" x="1369.66" y="526.91" width="283.97" height="12.37"/><rect class="cls-6" x="1369.66" y="576.38" width="283.97" height="12.37"/><rect class="cls-16" x="1369.66" y="601.11" width="283.97" height="12.37"/><rect class="cls-16" x="1369.66" y="649.51" width="283.97" height="12.37"/><rect class="cls-16" x="1369.66" y="576.67" width="283.97" height="12.37"/><rect class="cls-16" x="1369.66" y="625.85" width="146.93" height="12.37"/><path class="cls-2" d="M1346.43,423.22l-10.8,4.55,10.8,4.56v3.73l-17.71-7.7v-1.17l17.71-7.7Z"/><path class="cls-2" d="M1353.77,445h-4.59l20.53-35.38h4.6Z"/><path class="cls-2" d="M1394.76,427.19v1.17l-17.71,7.7v-3.73l10.8-4.56-10.8-4.55v-3.73Z"/><path class="cls-3" d="M1398.35,1070.83H363.4A13.85,13.85,0,0,1,349.54,1057h0a13.86,13.86,0,0,1,13.86-13.86H1398.35A13.86,13.86,0,0,1,1412.2,1057h0A13.85,13.85,0,0,1,1398.35,1070.83Z"/><path class="cls-8" d="M385.5,1664.5a8,8,0,0,1-1.19-.09,8.41,8.41,0,0,1-7.15-9.51L461.88,1058a8.41,8.41,0,0,1,16.66,2.36l-84.72,596.93A8.4,8.4,0,0,1,385.5,1664.5Z"/><path class="cls-8" d="M1323.1,1664.5a8.41,8.41,0,0,1-8.32-7.24l-84.72-596.93a8.41,8.41,0,0,1,16.66-2.36l84.72,596.93a8.41,8.41,0,0,1-7.15,9.51A8,8,0,0,1,1323.1,1664.5Z"/><rect class="cls-2" x="1461.84" y="674.39" width="422.16" height="424.97"/><rect class="cls-16" x="1461.84" y="674.39" width="422.16" height="54.25"/><rect class="cls-6" x="1501.25" y="755.36" width="64.31" height="12.37"/><rect class="cls-6" x="1501.25" y="780.1" width="64.31" height="12.37"/><rect class="cls-6" x="1501.25" y="928.51" width="64.31" height="12.37"/><rect class="cls-6" x="1501.25" y="977.99" width="64.31" height="12.37"/><rect class="cls-6" x="1541.32" y="804.83" width="283.97" height="12.37"/><rect class="cls-16" x="1541.32" y="829.57" width="283.97" height="12.37"/><rect class="cls-16" x="1541.32" y="854.31" width="283.97" height="12.37"/><rect class="cls-16" x="1541.32" y="879.04" width="283.97" height="12.37"/><rect class="cls-16" x="1541.32" y="1002.72" width="283.97" height="12.37"/><rect class="cls-16" x="1541.32" y="1027.46" width="283.97" height="12.37"/><rect class="cls-16" x="1541.32" y="1052.19" width="206.79" height="12.37"/><rect class="cls-16" x="1541.32" y="953.25" width="283.97" height="12.37"/><rect class="cls-16" x="1541.32" y="903.78" width="146.93" height="12.37"/><text class="cls-23" transform="translate(1507.72 713.49)">&lt;/&gt;</text></svg>